<svg width="126" height="33" viewBox="0 0 126 33" fill="none" xmlns="http://www.w3.org/2000/svg">
<g clip-path="url(#clip0_1_18)">
<path d="M9.3834 19.397C8.6166 18.1773 7.9668 16.92 7.3926 15.6251H7.2774V31.7445H0V1.25734H9.1152C11.5668 10.0227 16.0092 18.9779 23.247 22.4454V1.21973H30.5244V32.3535C20.2608 31.8197 13.4046 25.8376 9.3834 19.397Z" fill="#28A0EB"/>
<path d="M33.6636 16.5009C33.6636 7.27881 41.094 0 50.4756 0C59.8572 0 67.2876 7.31642 67.2876 16.5009C67.2876 25.6854 59.9346 33.0018 50.4756 33.0018C41.0166 33.0018 33.6636 25.723 33.6636 16.5009ZM59.7438 16.5009C59.7438 10.671 55.4922 6.89731 50.4756 6.89731C45.459 6.89731 41.2452 10.6693 41.2452 16.5009C41.2452 22.3325 45.4572 26.1045 50.4756 26.1045C55.494 26.1045 59.7438 22.3325 59.7438 16.5009Z" fill="#28A0EB"/>
<path d="M65.7576 1.25684H73.9152L82.6092 22.4073L91.3014 1.25684H99.3816L86.4378 31.7422H78.6636L65.7576 1.25684Z" fill="#28A0EB"/>
<path d="M105.32 1.25684H113.094L126 31.7422H117.842L115.2 25.187C111.141 27.1679 107.235 27.9685 102.179 27.4347L100.456 31.7404H92.376L105.32 1.25684ZM112.788 19.2049L109.15 10.2121L104.899 20.7291C107.694 20.9583 110.376 20.4246 112.788 19.2049Z" fill="#28A0EB"/>
</g>
<defs>
<clipPath id="clip0_1_18">
<rect width="126" height="33" fill="white"/>
</clipPath>
</defs>
</svg>
