<?xml version="1.0" encoding="UTF-8"?>
<!DOCTYPE svg PUBLIC "-//W3C//DTD SVG 1.1//EN" "http://www.w3.org/Graphics/SVG/1.1/DTD/svg11.dtd">
<!-- Creator: CorelDRAW 2019 (64-Bit) -->
<svg xmlns="http://www.w3.org/2000/svg" xml:space="preserve" width="4.804in" height="1.034in" version="1.1" style="shape-rendering:geometricPrecision; text-rendering:geometricPrecision; image-rendering:optimizeQuality; fill-rule:evenodd; clip-rule:evenodd"
viewBox="0 0 4804 1034"
 xmlns:xlink="http://www.w3.org/1999/xlink">
 <defs>
  <style type="text/css">
   <![CDATA[
    .fil0 {fill:black;fill-rule:nonzero}
    .fil2 {fill:#787878;fill-rule:nonzero}
    .fil1 {fill:#FF0032;fill-rule:nonzero}
   ]]>
  </style>
 </defs>
 <g id="Layer_x0020_1">
  <metadata id="CorelCorpID_0Corel-Layer"/>
  <path class="fil0" d="M1704.5 210.56l-212.19 472.46c-4.11,10.11 -13.85,16.53 -25.1,16.53l-210.94 -0.32c-9.22,0 -16.85,-8.4 -15.83,-17.46l30.37 -468.47c1.53,-13.85 12.83,-23.86 26.93,-23.86l113.81 0c9.43,0 17.13,8.75 15.78,17.94l-47.99 401.86c18.79,-44.32 139.78,-352.13 157.99,-402.39 3.85,-10.63 13.83,-17.42 25.47,-17.42l126.79 0c10.86,0 18.89,11.36 14.91,21.13z"/>
  <path class="fil0" d="M2831.44 210.56l-212.19 472.46c-4.11,10.11 -13.85,16.53 -25.1,16.53l-210.94 -0.32c-9.22,0 -16.85,-8.4 -15.83,-17.46l30.38 -468.47c1.53,-13.85 12.83,-23.86 26.93,-23.86l113.81 0c9.43,0 17.12,8.75 15.78,17.94l-47.98 401.86c18.79,-44.32 139.78,-352.13 157.98,-402.39 3.85,-10.63 13.83,-17.42 25.47,-17.42l126.79 0c10.86,0 18.89,11.36 14.92,21.13z"/>
  <path class="fil0" d="M1950.41 318.01c6.26,-22.01 1.65,-47.35 -26.93,-47.35 -32.17,0 -44.87,22.76 -51.52,47.35l-66.04 250.2c-5.49,20.8 -8.25,50.82 24.47,50.82 25.43,0 47.67,-23.83 57.64,-64.68l62.37 -236.33zm228.28 -283.13l-168.42 645.54c-3.14,11.85 -13.65,19.82 -26.19,19.82l-113.94 0c-10.08,0 -17.97,-9.94 -15.46,-19.48l12.44 -36.31c-55.59,59.86 -90.57,65.03 -127.65,65.03 -31.85,0 -97.8,-8.72 -102.18,-63.14 -1.33,-16.68 2.41,-45.17 10.78,-80.96 18.76,-80.39 59.11,-227.47 66.39,-250.72 21.97,-70.14 54.14,-103.33 75.39,-115.79 21.25,-12.43 44.32,-18.67 69.21,-18.67 19.25,0 82.2,-1.43 116.72,41.67l47.32 -186.64c3.14,-11.86 13.65,-19.82 26.2,-19.82l113.94 0c10.1,0 17.99,9.93 15.46,19.47z"/>
  <path class="fil0" d="M2404.56 34.89l-21.64 88.18c-3.14,11.86 -13.65,19.82 -26.19,19.82l-118.56 0c-10.09,0 -17.98,-9.93 -15.46,-19.47l21.64 -88.18c3.13,-11.86 13.65,-19.82 26.2,-19.82l118.56 0c10.08,0 17.97,9.93 15.46,19.47zm-41.42 174.03l-124.44 471.5c-3.13,11.86 -13.64,19.82 -26.18,19.82l-118.57 0c-10.08,0 -17.97,-9.93 -15.46,-19.47l124.44 -471.51c3.12,-11.85 13.64,-19.82 26.18,-19.82l118.57 0c10.08,0 17.97,9.94 15.46,19.48z"/>
  <path class="fil1" d="M3200.34 583.33l-28.35 95.4c-3.39,12.88 -14.8,21.52 -28.42,21.52l-375.87 0c-11.13,0 -18.09,-13.78 -4.3,-46.99 33.44,-80.5 54.93,-111.69 75.62,-143.4 70.79,-108.43 207.02,-205.47 244.89,-243.08 41.25,-40.97 59.33,-73.14 65.65,-97.08 4.85,-18.39 10.35,-54.75 -33.99,-54.75 -12.83,0 -23.69,5.03 -32.62,15.04 -8.93,10.04 -22.5,29.96 -30.36,59.75l-11.31 42.83c-3.39,12.86 -14.8,21.5 -28.41,21.5l-113.61 0c-12.78,0 -22.76,-12.57 -19.58,-24.65l0 0c10,-37.86 19.82,-67.74 29.49,-89.61 9.68,-21.85 31.54,-51.96 52.46,-73.13 20.89,-21.17 45.04,-37.18 72.42,-48.04 27.36,-10.86 66.03,-16.31 100.29,-16.31 213.75,0 195.47,133.94 182.03,184.9 -10.22,38.72 -31.98,75.53 -62.74,118.7 -59.76,83.93 -184.85,131.01 -255.4,256.26l185.35 0c10.94,0 19.51,10.79 16.78,21.14z"/>
  <path class="fil1" d="M3520 440.7l85.65 -289.11 -193.28 289.11 107.63 0zm264.85 -395.68l-105.4 395.68 70.58 0c10.94,0 19.5,10.78 16.78,21.14l-25.12 88.32c-3.39,12.88 -14.81,21.52 -28.43,21.52l-70.18 0 -25.46 107.06c-3.4,12.87 -14.82,21.52 -28.43,21.52l-114.33 0c-10.94,0 -19.51,-10.8 -16.78,-21.14l25.56 -107.43 -245.2 0c-10.94,0 -19.5,-10.79 -16.78,-21.14 0,0 18.75,-74.83 31.78,-109.83 8.25,-22.18 286.7,-402.76 286.7,-402.76 5.22,-8.79 14.71,-14.06 25.3,-14.06l202.64 0c10.94,0 19.52,10.78 16.78,21.14z"/>
  <path class="fil2" d="M4225.39 270.96l-30.3 114.75c5.81,-0.2 25.93,-0.32 29.11,-0.32 13.18,0 22.43,-3.24 27.76,-9.72 5.3,-6.47 12.01,-25.01 20.08,-55.63 4.26,-16.14 5.76,-27.46 4.5,-33.94 -1.25,-6.49 -4.06,-10.57 -8.4,-12.27 -4.32,-1.69 -29,-2.65 -42.76,-2.87zm-51.49 195.07l-38.1 144.42c22,2.82 47.56,-3.61 54.15,-8.92 6.61,-5.32 12.68,-18.39 18.18,-39.22l12.69 -48.14c5.83,-22.08 6.22,-36.3 0.04,-41.15 -8.76,-6.86 -21.15,-9.33 -46.97,-6.98zm-65.47 -260.37c3.63,-13.75 15.83,-22.99 30.37,-22.99l125.2 0c42.29,0 73.47,3.28 93.51,9.86 20.04,6.58 45.21,18.83 53.31,38.9 8.08,20.07 7.18,53.47 -4.6,98.08 -7.96,30.15 -18.24,51.17 -30.82,63.09 -12.6,11.87 -31.98,23.3 -57,29.22 30.9,2.67 43.28,13.1 50.04,29.36 6.75,16.26 3.37,44.93 -5.49,78.53l-12.63 47.82c-9.2,34.87 -20,60.71 -32.41,77.51 -12.39,16.81 -28.13,28.28 -47.17,34.44 -19.06,6.17 -83.24,9.25 -137.21,9.25l-131.35 0c-11.69,0 -20.85,-11.52 -17.93,-22.58l124.17 -470.5z"/>
  <path class="fil2" d="M4759.22 372.66l-71.07 0c-11.69,0 -20.85,-11.53 -17.93,-22.6l6.4 -24.26c7.79,-29.54 16.78,-66.64 -16.44,-66.64 -18.22,0 -43.67,7.26 -53.65,58.67l-65.36 247.68c-15.2,51.44 15.24,56.74 24.17,56.74 37.89,0 46.93,-36.87 53.28,-60.89l16.14 -61.19 -27.24 0c-11.71,0 -20.86,-11.53 -17.93,-22.6l8.65 -32.83c3.64,-13.75 15.83,-22.98 30.39,-22.98l117.35 0c11.71,0 20.85,11.53 17.93,22.59l-61.07 231.42c-3.63,13.76 -15.83,22.99 -30.37,22.99l-39.22 0c-9.46,0 -14.75,-4.93 -15.43,-14.41l5.12 -33.76c-11.53,21.11 -35.12,37.82 -51.17,45.8 -16.01,7.96 -35.96,13.2 -54.87,13.2 -22.57,0 -59.06,-5.47 -75.85,-16.4 -16.78,-10.94 -28.13,-24.5 -34.08,-40.65 -5.94,-16.14 -7.86,-33.09 -5.72,-50.83 2.13,-17.75 7.87,-44.38 17.25,-79.86l40.44 -153.32c13.03,-49.31 25.14,-85.11 36.33,-107.43 11.2,-22.29 31.85,-42.75 61.93,-61.36 30.09,-18.6 81.94,-27.89 121.89,-27.89 39.32,0 66.21,8.07 87.88,24.24 21.67,16.14 33.48,35.33 35.48,57.54 2,22.19 -2.57,54.44 -13.74,96.73 -3.52,13.35 -15.36,22.32 -29.48,22.32z"/>
  <path class="fil2" d="M3934.87 592.24l-21.64 88.18c-3.14,11.86 -13.65,19.82 -26.19,19.82l-118.56 0c-10.1,0 -17.99,-9.93 -15.46,-19.47l21.64 -88.18c3.13,-11.86 13.65,-19.82 26.19,-19.82l118.56 0c10.08,0 17.97,9.93 15.46,19.47z"/>
  <path class="fil0" d="M851.73 34.89l-168.82 645.53c-3.14,11.86 -13.65,19.82 -26.19,19.82l-118.56 0c-10.1,0 -17.99,-9.93 -15.46,-19.47l168.82 -645.53c3.12,-11.86 13.65,-19.82 26.19,-19.82l118.56 0c10.08,0 17.97,9.93 15.46,19.47z"/>
  <path class="fil0" d="M1060.98 330.33c6.92,-26.18 15.37,-59.74 -22.14,-59.67 -28.74,0.07 -44.24,14.68 -54.39,59.67l-60.85 230.57c-6.37,24.13 -18.46,58.14 22.93,58.14 31.91,0 45.97,-26.96 52.28,-53.14l62.17 -235.57zm145.35 38.49l-33.01 125.1c-12.13,45.94 -23.32,79.64 -33.6,101.06 -10.26,21.43 -25.44,41.44 -45.48,60.04 -20.06,18.61 -43.13,32.33 -69.18,41.2 -26.07,8.85 -70.06,13.28 -100.86,13.28 -34.37,0 -78.06,-3.79 -99.93,-11.35 -21.86,-7.58 -37.41,-19 -46.58,-34.26 -9.2,-15.26 -13.75,-33.75 -13.65,-55.43 0.07,-21.7 5.82,-54.21 17.28,-97.59l34.53 -130.87c12.53,-47.47 27.46,-84.56 44.78,-111.25 17.31,-26.68 41.43,-48.11 72.37,-64.28 30.96,-16.17 82.76,-24.25 124.35,-24.25 34.91,0 79.04,5.19 101.32,15.59 22.27,10.38 38,23.93 47.21,40.6 9.2,16.68 13.96,33.89 14.29,51.58 0.33,17.71 -4.26,44.65 -13.82,80.83z"/>
  <path class="fil0" d="M230.6 32.05c4.06,-11.75 14.11,-19.08 25.86,-19.08l217.59 0c95.43,0 164.76,60.2 133.17,182.06l-33.64 140.92c-24.96,98.37 -68.97,148.29 -193.78,148.29l-91.33 0 -53.93 196.92c-2.58,11.75 -14.11,19.1 -25.86,19.1l-129.21 0c-11.74,0 -22.32,-10.28 -18.32,-23.5l169.44 -644.7zm140.06 117.46l-47 184.96 38.47 0c33.76,0 46.58,-13.21 57.15,-52.85l19.28 -80.72c7.93,-29.38 -0.07,-51.39 -30.9,-51.39l-37 0z"/>
  <path class="fil2" d="M91.35 908.41c17.87,-7.07 27.39,-17.28 28.52,-30.64 0.69,-8 -1.65,-14.21 -7.02,-18.6 -5.36,-4.4 -12.75,-6.61 -22.17,-6.61l-33.24 0 -14.63 55.85 48.53 0zm-27.5 74.21c12.56,0 22.6,-2.71 30.13,-8.13 7.53,-5.42 11.71,-12.92 12.53,-22.5 0.71,-8.32 -1.56,-14.68 -6.75,-19.08 -5.21,-4.4 -13.14,-6.6 -23.82,-6.6l-37.69 0 -14.7 56.31 40.31 0zm-65.1 17.44l42.97 -164.93 55.61 0c14.44,0 25.56,3.37 33.3,10.12 7.75,6.76 11.1,16.35 10.04,28.75 -0.92,10.83 -4.78,19.92 -11.61,27.21 -6.82,7.3 -15.97,12.85 -27.44,16.61l-0.31 0.71c9.37,2.68 16.24,6.68 20.65,12.01 4.42,5.35 6.24,12.65 5.46,21.92 -0.83,9.74 -4.14,18.18 -9.93,25.33 -5.78,7.14 -13.64,12.64 -23.56,16.48 -9.91,3.85 -21.31,5.78 -34.17,5.78l-61.03 0z"/>
  <path class="fil2" d="M197.8 993.7c-10.76,-5.5 -18.93,-13.91 -24.48,-25.21 -5.57,-11.32 -7.63,-25.38 -6.2,-42.18 1.53,-18.06 6.71,-34.17 15.52,-48.31 8.82,-14.14 20.65,-25.17 35.44,-33.1 14.82,-7.93 31.57,-11.9 50.26,-11.9 16.01,0 31.74,3.54 47.15,10.6l-3.4 18.15 -1.97 0.94c-5.56,-2.99 -12.18,-5.61 -19.83,-7.89 -7.67,-2.29 -15.65,-3.43 -23.97,-3.43 -14.31,0 -27.17,3.07 -38.6,9.2 -11.44,6.13 -20.61,14.76 -27.53,25.92 -6.93,11.15 -10.99,23.96 -12.22,38.4 -1.64,19.48 2.44,34.13 12.29,43.94 9.85,9.82 23.25,14.72 40.22,14.72 13.82,0 29.08,-3.06 45.78,-9.18l2.04 0.93 -9.92 19.56c-13.26,4.71 -27.61,7.07 -42.98,7.07 -14.31,0 -26.83,-2.74 -37.6,-8.24z"/>
  <path class="fil2" d="M318.93 1000.06l43.46 -164.93 19.57 0 -22.06 84.82c-4.11,15.08 -8.57,30.71 -13.42,46.89l0.89 0.71 123.86 -132.42 20.26 0 -42.99 164.93 -20.01 0 20.57 -78.46c4.83,-18.21 9.96,-36.04 15.38,-53.48l-1.14 -0.47 -123.86 132.42 -20.52 0z"/>
  <path class="fil2" d="M635.22 835.13l19.79 0 -43.22 164.93 -19.79 0 16.78 -64.33 -0.68 -0.24c-6.24,3.15 -13.25,5.62 -21.02,7.43 -7.76,1.81 -15.35,2.71 -22.74,2.71 -15.39,0 -27.33,-4.13 -35.82,-12.37 -8.49,-8.24 -12.15,-19.11 -11.02,-32.63 0.33,-3.93 0.96,-7.54 1.86,-10.83l14.54 -54.67 19.79 0 -14.29 54.67c-0.74,2.97 -1.21,5.89 -1.44,8.71 -0.79,9.26 1.74,16.37 7.59,21.33 5.86,4.94 14.77,7.42 26.7,7.42 14.3,0 28.08,-3.29 41.37,-9.91l21.58 -82.22z"/>
  <polygon class="fil2" points="825.13,835.13 825.49,836.55 739.24,917.12 785.57,998.65 785.2,1000.06 762.35,1000.06 720.97,926.79 701.43,926.79 682.24,1000.06 662.22,1000.06 705.2,835.13 725.24,835.13 705.99,909.11 722.72,909.11 801.57,835.13 "/>
  <path class="fil2" d="M926.23 973.43c10.94,-6.75 19.61,-15.78 25.99,-27.1 6.37,-11.3 10.15,-23.7 11.29,-37.22 1.56,-18.37 -2.35,-32.56 -11.71,-42.53 -9.37,-9.97 -22.61,-14.96 -39.72,-14.96 -14.14,0 -26.68,3.46 -37.64,10.36 -10.96,6.92 -19.67,16.07 -26.12,27.46 -6.47,11.39 -10.25,23.59 -11.36,36.62 -1.54,18.24 2.36,32.36 11.72,42.42 9.35,10.06 22.67,15.07 39.94,15.07 14.14,0 26.67,-3.36 37.61,-10.13zm-78.33 19.32c-11.2,-5.97 -19.6,-14.64 -25.22,-26.03 -5.64,-11.39 -7.78,-25.01 -6.43,-40.87 1.44,-16.96 6.53,-32.49 15.26,-46.54 8.74,-14.06 20.24,-25.21 34.53,-33.46 14.28,-8.25 30.22,-12.36 47.81,-12.36 15.08,0 28.18,2.99 39.29,8.94 11.12,5.99 19.42,14.7 24.89,26.15 5.47,11.47 7.53,25.14 6.17,41 -1.43,16.97 -6.44,32.43 -15,46.42 -8.58,13.97 -20.02,25.08 -34.29,33.35 -14.29,8.24 -30.24,12.36 -47.81,12.36 -14.94,0 -27.98,-2.99 -39.19,-8.96z"/>
  <path class="fil2" d="M1067.78 999.12c-7.07,-1.89 -14.29,-4.64 -21.69,-8.25l1.37 -18.85 1.28 -1.18c15.43,8.64 30.54,12.96 45.32,12.96 13.35,0 23.97,-2.75 31.92,-8.25 7.92,-5.5 12.32,-13.26 13.17,-23.32 0.79,-9.26 -1.87,-15.94 -7.97,-20.03 -6.08,-4.08 -14.24,-6.12 -24.44,-6.12l-28.97 0 5.97 -17.67 40.29 0c8.68,-2.51 15.92,-6.76 21.7,-12.72 5.76,-5.97 8.97,-12.81 9.64,-20.5 0.67,-7.85 -1.63,-13.86 -6.85,-18.03 -5.21,-4.17 -13.1,-6.25 -23.61,-6.25 -10.83,0 -24.76,3.07 -41.78,9.2l-1.29 -1.42 7.65 -17.91c8.69,-2.51 16.39,-4.39 23.08,-5.65 6.72,-1.26 13.28,-1.89 19.72,-1.89 15.24,0 26.82,3.26 34.75,9.78 7.92,6.52 11.37,15.75 10.37,27.68 -0.9,10.53 -5.07,19.83 -12.51,27.93 -7.43,8.08 -17.46,14.17 -30.06,18.25l-0.56 0.94c8.65,1.74 15.36,5.5 20.13,11.31 4.78,5.82 6.79,13.12 6.04,21.91 -0.85,9.89 -4.35,18.7 -10.49,26.39 -6.15,7.7 -14.4,13.71 -24.74,18.03 -10.33,4.32 -22.04,6.47 -35.07,6.47 -7.86,0 -15.32,-0.94 -22.38,-2.82z"/>
  <path class="fil2" d="M1246.57 919.01l-13.92 22.37 62.21 0 -2.35 -22.37 -6.26 -62.21 -0.71 0 -38.97 62.21zm32.17 -84.82l24.26 0 18.28 164.93 -0.78 0.93 -19.56 0 -4.32 -40.75 -75.15 0 -25.61 40.75 -21.21 0 -0.15 -0.93 104.24 -164.93z"/>
  <polygon class="fil2" points="1426.29,1000.06 1406.26,1000.06 1449.47,835.13 1575.76,835.13 1532.54,1000.06 1512.52,1000.06 1550.9,853.28 1464.68,853.28 "/>
  <polygon class="fil2" points="1588.61,1000.06 1567.41,1000.06 1567.25,999.13 1670.8,834.2 1695.06,834.2 1712.63,999.13 1711.84,1000.06 1692.28,1000.06 1684.31,919.02 1678.3,856.81 1677.59,856.81 1638.85,919.02 "/>
  <path class="fil2" d="M1853.81 973.43c10.94,-6.75 19.61,-15.78 25.98,-27.1 6.37,-11.3 10.15,-23.7 11.29,-37.22 1.56,-18.37 -2.35,-32.56 -11.71,-42.53 -9.37,-9.97 -22.61,-14.96 -39.72,-14.96 -14.14,0 -26.68,3.46 -37.64,10.36 -10.96,6.92 -19.67,16.07 -26.13,27.46 -6.47,11.39 -10.25,23.59 -11.36,36.62 -1.54,18.24 2.36,32.36 11.72,42.42 9.35,10.06 22.67,15.07 39.94,15.07 14.14,0 26.67,-3.36 37.61,-10.13zm-78.33 19.32c-11.19,-5.97 -19.6,-14.64 -25.22,-26.03 -5.64,-11.39 -7.78,-25.01 -6.43,-40.87 1.44,-16.96 6.53,-32.49 15.26,-46.54 8.74,-14.06 20.24,-25.21 34.53,-33.46 14.28,-8.25 30.22,-12.36 47.81,-12.36 15.08,0 28.18,2.99 39.29,8.94 11.13,5.99 19.42,14.7 24.89,26.15 5.47,11.47 7.53,25.14 6.17,41 -1.43,16.97 -6.44,32.43 -15,46.42 -8.58,13.97 -20.01,25.08 -34.29,33.35 -14.29,8.24 -30.24,12.36 -47.81,12.36 -14.94,0 -28,-2.99 -39.19,-8.96z"/>
  <path class="fil2" d="M2022.14 908.41c17.87,-7.07 27.39,-17.28 28.51,-30.64 0.7,-8 -1.65,-14.21 -7.01,-18.6 -5.36,-4.4 -12.75,-6.61 -22.17,-6.61l-33.24 0 -14.62 55.85 48.53 0zm-27.5 74.21c12.56,0 22.59,-2.71 30.13,-8.13 7.53,-5.42 11.7,-12.92 12.53,-22.5 0.71,-8.32 -1.56,-14.68 -6.75,-19.08 -5.21,-4.4 -13.14,-6.6 -23.82,-6.6l-37.69 0 -14.7 56.31 40.31 0zm-65.1 17.44l42.97 -164.93 55.61 0c14.44,0 25.56,3.37 33.31,10.12 7.75,6.76 11.1,16.35 10.04,28.75 -0.91,10.83 -4.78,19.92 -11.61,27.21 -6.82,7.3 -15.97,12.85 -27.44,16.61l-0.3 0.71c9.37,2.68 16.24,6.68 20.65,12.01 4.41,5.35 6.24,12.65 5.46,21.92 -0.83,9.74 -4.14,18.18 -9.93,25.33 -5.78,7.14 -13.64,12.64 -23.56,16.48 -9.9,3.85 -21.3,5.78 -34.17,5.78l-61.03 0z"/>
  <path class="fil2" d="M2195.91 854.22l-0.47 0 -82 127.7 98.02 0 -15.54 -127.7zm-7.97 -20.03l24.52 0 19.26 147.72 15.56 0 -13.93 53.01 -14.72 1.42 -5.65 0 9.67 -36.29 -131.22 0 -9.32 34.87 -14.74 1.42 -5.65 0 14.28 -54.43 15.08 0 96.87 -147.72z"/>
  <path class="fil2" d="M2269.75 1000.06l43.46 -164.93 19.57 0 -22.06 84.82c-4.11,15.08 -8.57,30.71 -13.42,46.89l0.89 0.71 123.87 -132.42 20.25 0 -42.98 164.93 -20.02 0 20.56 -78.46c4.85,-18.21 9.97,-36.04 15.39,-53.48l-1.14 -0.47 -123.86 132.42 -20.52 0z"/>
  <path class="fil2" d="M2542.36 908.41c17.87,-7.07 27.39,-17.28 28.53,-30.64 0.68,-8 -1.65,-14.21 -7.03,-18.6 -5.36,-4.4 -12.74,-6.61 -22.18,-6.61l-33.22 0 -14.63 55.85 48.53 0zm-27.5 74.21c12.56,0 22.6,-2.71 30.13,-8.13 7.53,-5.42 11.7,-12.92 12.53,-22.5 0.71,-8.32 -1.56,-14.68 -6.75,-19.08 -5.21,-4.4 -13.14,-6.6 -23.82,-6.6l-37.69 0 -14.7 56.31 40.31 0zm-65.1 17.44l42.99 -164.93 55.61 0c14.44,0 25.54,3.37 33.29,10.12 7.75,6.76 11.1,16.35 10.04,28.75 -0.93,10.83 -4.78,19.92 -11.61,27.21 -6.82,7.3 -15.97,12.85 -27.44,16.61l-0.29 0.71c9.36,2.68 16.24,6.68 20.64,12.01 4.41,5.35 6.24,12.65 5.46,21.92 -0.83,9.74 -4.14,18.18 -9.93,25.33 -5.78,7.14 -13.65,12.64 -23.56,16.48 -9.91,3.85 -21.31,5.78 -34.17,5.78l-61.03 0z"/>
  <polygon class="fil2" points="2680.41,1000.06 2660.39,1000.06 2703.36,835.13 2723.41,835.13 2704.18,908.64 2793.71,908.64 2812.68,835.13 2832.72,835.13 2789.72,1000.06 2769.71,1000.06 2788.89,926.78 2699.6,926.78 "/>
  <path class="fil2" d="M2896.52 919.01l-13.93 22.37 62.21 0 -2.35 -22.37 -6.27 -62.21 -0.69 0 -38.97 62.21zm32.17 -84.82l24.27 0 18.28 164.93 -0.79 0.93 -19.56 0 -4.31 -40.75 -75.17 0 -25.6 40.75 -21.22 0 -0.14 -0.93 104.23 -164.93z"/>
  <polygon class="fil2" points="3160.81,1000.06 3056.43,1000.06 3099.42,835.13 3199.79,835.13 3197.07,853.28 3114.83,853.28 3100.2,909.11 3168.76,909.11 3162.28,927.25 3095.36,927.25 3081.07,981.92 3167.06,981.92 "/>
  <path class="fil2" d="M3305.84 854.22l-0.47 0 -81.98 127.7 98 0 -15.54 -127.7zm-7.96 -20.03l24.5 0 19.26 147.72 15.56 0 -13.93 53.01 -14.72 1.42 -5.65 0 9.67 -36.29 -131.22 0 -9.32 34.87 -14.74 1.42 -5.65 0 14.28 -54.43 15.08 0 96.89 -147.72z"/>
  <polygon class="fil2" points="3399.94,1000.06 3379.93,1000.06 3422.9,835.13 3442.94,835.13 3423.72,908.64 3513.25,908.64 3532.22,835.13 3552.26,835.13 3509.26,1000.06 3489.25,1000.06 3508.43,926.78 3419.14,926.78 "/>
  <path class="fil2" d="M3679.28 973.43c10.94,-6.75 19.61,-15.78 25.97,-27.1 6.39,-11.3 10.17,-23.7 11.32,-37.22 1.56,-18.37 -2.36,-32.56 -11.72,-42.53 -9.38,-9.97 -22.61,-14.96 -39.74,-14.96 -14.13,0 -26.67,3.46 -37.63,10.36 -10.96,6.92 -19.67,16.07 -26.11,27.46 -6.49,11.39 -10.26,23.59 -11.37,36.62 -1.54,18.24 2.36,32.36 11.72,42.42 9.35,10.06 22.67,15.07 39.94,15.07 14.14,0 26.67,-3.36 37.61,-10.13zm-78.33 19.32c-11.19,-5.97 -19.59,-14.64 -25.22,-26.03 -5.64,-11.39 -7.79,-25.01 -6.43,-40.87 1.44,-16.96 6.53,-32.49 15.26,-46.54 8.74,-14.06 20.24,-25.21 34.51,-33.46 14.29,-8.25 30.24,-12.36 47.82,-12.36 15.08,0 28.18,2.99 39.29,8.94 11.11,5.99 19.42,14.7 24.89,26.15 5.46,11.47 7.53,25.14 6.18,41 -1.46,16.97 -6.44,32.43 -15.02,46.42 -8.58,13.97 -20.01,25.08 -34.29,33.35 -14.28,8.24 -30.24,12.36 -47.8,12.36 -14.94,0 -28,-2.99 -39.2,-8.96z"/>
  <path class="fil2" d="M3874.7 902.76c-0.47,-5.5 -0.92,-13.28 -1.33,-23.33 -0.18,-3.14 -0.37,-6.47 -0.56,-10 -0.17,-3.54 -0.37,-7.43 -0.65,-11.67l-1.43 0.24c-5.65,16.65 -11.61,33.22 -17.89,49.71l-34.24 92.36 -19.32 0 -0.85 -1.18 62.46 -163.75 27.81 0 8.13 95.67c1.36,17.28 2.28,34.17 2.76,50.65l1.43 0 2.78 -5.19c8.93,-16.49 17.59,-31.64 26.01,-45.46l58.07 -95.67 29.22 0 -23.11 163.75 -1.28 1.18 -20.26 0 14.68 -92.36 1 -6.13c2.14,-14.29 4.47,-28.82 7,-43.58l-1.42 0c-6.69,12.25 -15.35,27.17 -25.96,44.76l-59.9 98.01 -25.44 0 -7.71 -98.01z"/>
  <path class="fil2" d="M4141.45 919.01l17.11 -65.74 -31.1 0c-15.54,0 -27.89,2.94 -37.03,8.83 -9.14,5.89 -14.15,14.18 -15.07,24.86 -0.75,8.94 0.97,15.83 5.2,20.61 4.22,4.79 9.98,8.6 17.29,11.43l43.59 0zm41.99 -83.88l-43.22 164.92 -20.03 0 16.42 -62.89 -30.17 0 -58.35 62.89 -24.5 0 -0.11 -1.4 60.28 -63.37c-21.4,-8.81 -31.11,-24.91 -29.13,-48.31 0.88,-10.21 4.42,-19.24 10.68,-27.1 6.24,-7.85 14.75,-13.93 25.56,-18.26 10.82,-4.3 23.38,-6.47 37.67,-6.47l54.9 0z"/>
  <path class="fil2" d="M4230.87 993.7c-10.76,-5.5 -18.93,-13.91 -24.48,-25.21 -5.56,-11.32 -7.63,-25.38 -6.2,-42.18 1.53,-18.06 6.71,-34.17 15.52,-48.31 8.83,-14.14 20.65,-25.17 35.44,-33.1 14.82,-7.93 31.57,-11.9 50.26,-11.9 16.01,0 31.74,3.54 47.17,10.6l-3.42 18.15 -1.97 0.94c-5.56,-2.99 -12.18,-5.61 -19.85,-7.89 -7.65,-2.29 -15.64,-3.43 -23.96,-3.43 -14.31,0 -27.15,3.07 -38.61,9.2 -11.43,6.13 -20.59,14.76 -27.51,25.92 -6.93,11.15 -10.99,23.96 -12.21,38.4 -1.65,19.48 2.43,34.13 12.29,43.94 9.83,9.82 23.24,14.72 40.19,14.72 13.82,0 29.1,-3.06 45.79,-9.18l2.04 0.93 -9.9 19.56c-13.28,4.71 -27.64,7.07 -43.02,7.07 -14.29,0 -26.83,-2.74 -37.58,-8.24z"/>
  <polygon class="fil2" points="4409.03,1000.06 4389.02,1000.06 4427.37,853.28 4373.2,853.28 4378.04,835.13 4506.21,835.13 4501.6,853.28 4447.42,853.28 "/>
  <path class="fil2" d="M4615.33 973.43c10.94,-6.75 19.61,-15.78 25.97,-27.1 6.39,-11.3 10.17,-23.7 11.31,-37.22 1.57,-18.37 -2.35,-32.56 -11.71,-42.53 -9.37,-9.97 -22.61,-14.96 -39.74,-14.96 -14.13,0 -26.67,3.46 -37.63,10.36 -10.96,6.92 -19.67,16.07 -26.11,27.46 -6.48,11.39 -10.26,23.59 -11.37,36.62 -1.54,18.24 2.36,32.36 11.72,42.42 9.35,10.06 22.67,15.07 39.94,15.07 14.14,0 26.68,-3.36 37.61,-10.13zm-78.33 19.32c-11.2,-5.97 -19.6,-14.64 -25.22,-26.03 -5.64,-11.39 -7.79,-25.01 -6.43,-40.87 1.44,-16.96 6.53,-32.49 15.26,-46.54 8.74,-14.06 20.24,-25.21 34.53,-33.46 14.28,-8.25 30.22,-12.36 47.81,-12.36 15.08,0 28.18,2.99 39.29,8.94 11.12,5.99 19.42,14.7 24.89,26.15 5.46,11.47 7.53,25.14 6.18,41 -1.46,16.97 -6.46,32.43 -15.01,46.42 -8.58,13.97 -20.02,25.08 -34.29,33.35 -14.28,8.24 -30.24,12.36 -47.81,12.36 -14.94,0 -28,-2.99 -39.19,-8.96z"/>
 </g>
</svg>
